<?xml version="1.0" encoding="utf-8"?>
<!-- Generator: Adobe Illustrator 24.1.2, SVG Export Plug-In . SVG Version: 6.00 Build 0)  -->
<svg version="1.1" id="Background" xmlns="http://www.w3.org/2000/svg" xmlns:xlink="http://www.w3.org/1999/xlink" x="0px" y="0px"
	 viewBox="0 0 420 104" style="enable-background:new 0 0 420 104;" xml:space="preserve">
<style type="text/css">
	.st0{fill:#4CAF50;}
</style>
<g id="Icon">
	<path class="st0" d="M367.82,95.53c-7.25,0-15.22-1.45-23.85-4.35c-1.11-0.38-2.02-1.21-2.47-2.3c-8.54-20.38-8.16-39.05,1.1-54.01
		c11.84-19.12,38.1-31.37,72.04-33.58c1.18-0.07,2.24,0.33,3.07,1.1c0.83,0.78,1.29,1.86,1.29,2.99c0,42.28-8.81,70.06-26.2,82.56
		C385.77,93,377.41,95.53,367.82,95.53z M348.35,83.99c16.59,5.21,29.93,4.3,39.67-2.7c14.55-10.47,22.2-34.5,22.76-71.47
		c-29.11,2.73-51.28,13.32-61.22,29.37C341.89,51.57,341.49,66.63,348.35,83.99z M324.79,99.59c-2.03,0-3.79-1.5-4.05-3.57
		c-0.29-2.24,1.29-4.3,3.53-4.59c0.28-0.04,30.03-4.63,54.31-47.12c1.12-1.96,3.62-2.65,5.59-1.52c1.96,1.12,2.65,3.62,1.52,5.59
		c-26.45,46.29-59,51-60.37,51.18L324.79,99.59z"/>
</g>
<g id="Title">
	<g id="Title_1_">
		<path class="st0" d="M35.67,22.39L12.24,77.48c-0.51,1.37-1.28,2.44-2.33,3.2c-1.05,0.76-2.19,1.14-3.42,1.14
			c-1.95,0-3.4-0.54-4.34-1.63c-0.94-1.08-1.41-2.42-1.41-4.01c0-0.65,0.11-1.34,0.33-2.06l27-64.85c0.58-1.45,1.46-2.57,2.66-3.36
			c1.19-0.79,2.48-1.12,3.85-0.98c1.3,0,2.51,0.38,3.63,1.14c1.12,0.76,1.93,1.83,2.44,3.2l26.68,63.55
			c0.36,0.94,0.54,1.81,0.54,2.6c0,1.95-0.63,3.51-1.9,4.66c-1.27,1.16-2.66,1.73-4.17,1.73c-1.3,0-2.48-0.4-3.52-1.19
			c-1.05-0.79-1.86-1.88-2.44-3.25L32.52,23.04L35.67,22.39z M15.6,64.25l5.96-12.47h29.28l2.06,12.47H15.6z"/>
		<path class="st0" d="M100.08,22.18c3.04,0,5.82,0.47,8.35,1.41c2.53,0.94,4.72,2.13,6.56,3.58c1.84,1.45,3.29,2.91,4.34,4.39
			c1.05,1.48,1.57,2.73,1.57,3.74l-2.82,1.41v-7.92c0-1.88,0.61-3.45,1.84-4.72c1.23-1.26,2.78-1.9,4.66-1.9
			c1.88,0,3.43,0.61,4.66,1.84c1.23,1.23,1.84,2.82,1.84,4.77v48.26c0,6.29-1.36,11.33-4.07,15.13c-2.71,3.79-6.27,6.54-10.68,8.24
			c-4.41,1.7-9.15,2.55-14.21,2.55c-1.45,0-3.33-0.18-5.64-0.54c-2.31-0.36-4.52-0.8-6.62-1.3c-2.1-0.51-3.69-0.98-4.77-1.41
			c-2.17-0.94-3.67-2.11-4.5-3.52c-0.83-1.41-0.99-2.91-0.49-4.5c0.65-2.1,1.7-3.52,3.14-4.28c1.45-0.76,2.96-0.85,4.55-0.27
			c0.72,0.22,1.91,0.65,3.58,1.3c1.66,0.65,3.49,1.25,5.48,1.79c1.99,0.54,3.74,0.81,5.26,0.81c5.42,0,9.43-1.08,12.04-3.25
			c2.6-2.17,3.9-5.17,3.9-9v-9.43l1.3,0.98c0,0.94-0.49,2.08-1.46,3.42c-0.98,1.34-2.31,2.66-4.01,3.96c-1.7,1.3-3.71,2.4-6.02,3.31
			c-2.31,0.9-4.77,1.36-7.37,1.36c-5.13,0-9.76-1.28-13.88-3.85c-4.12-2.56-7.37-6.11-9.76-10.63c-2.39-4.52-3.58-9.71-3.58-15.56
			c0-5.93,1.19-11.15,3.58-15.67c2.39-4.52,5.6-8.06,9.65-10.63C90.57,23.46,95.09,22.18,100.08,22.18z M102.14,34.11
			c-3.25,0-6.11,0.8-8.57,2.39c-2.46,1.59-4.37,3.76-5.75,6.51c-1.37,2.75-2.06,5.86-2.06,9.33c0,3.4,0.69,6.47,2.06,9.22
			c1.37,2.75,3.29,4.92,5.75,6.51c2.46,1.59,5.31,2.39,8.57,2.39c3.32,0,6.22-0.79,8.68-2.39c2.46-1.59,4.37-3.76,5.75-6.51
			c1.37-2.75,2.06-5.82,2.06-9.22c0-3.47-0.69-6.58-2.06-9.33c-1.37-2.75-3.29-4.92-5.75-6.51
			C108.36,34.9,105.46,34.11,102.14,34.11z"/>
		<path class="st0" d="M151.69,81.28c-1.88,0-3.43-0.63-4.66-1.9c-1.23-1.26-1.84-2.84-1.84-4.72V29.88c0-1.88,0.61-3.45,1.84-4.72
			c1.23-1.26,2.78-1.9,4.66-1.9c1.88,0,3.43,0.63,4.66,1.9c1.23,1.27,1.84,2.84,1.84,4.72v10.19l-0.76-7.27
			c0.79-1.73,1.82-3.27,3.09-4.61c1.26-1.34,2.69-2.46,4.28-3.36c1.59-0.9,3.29-1.57,5.1-2.01c1.81-0.43,3.61-0.65,5.42-0.65
			c2.17,0,3.99,0.61,5.48,1.84c1.48,1.23,2.22,2.68,2.22,4.34c0,2.39-0.62,4.1-1.84,5.15c-1.23,1.05-2.57,1.57-4.01,1.57
			c-1.37,0-2.62-0.25-3.74-0.76c-1.12-0.5-2.4-0.76-3.85-0.76c-1.3,0-2.62,0.31-3.96,0.92c-1.34,0.62-2.57,1.57-3.69,2.87
			c-1.12,1.3-2.02,2.91-2.71,4.83c-0.69,1.92-1.03,4.18-1.03,6.78v25.7c0,1.88-0.62,3.45-1.84,4.72
			C155.13,80.65,153.57,81.28,151.69,81.28z"/>
		<path class="st0" d="M197.89,16.21c-2.46,0-4.19-0.4-5.21-1.19c-1.01-0.79-1.52-2.2-1.52-4.23V8.73c0-2.1,0.56-3.52,1.68-4.28
			c1.12-0.76,2.84-1.14,5.15-1.14c2.53,0,4.3,0.4,5.31,1.19c1.01,0.8,1.52,2.21,1.52,4.23v2.06c0,2.1-0.54,3.52-1.63,4.28
			C202.12,15.83,200.35,16.21,197.89,16.21z M204.5,74.66c0,1.88-0.62,3.45-1.84,4.72c-1.23,1.27-2.78,1.9-4.66,1.9
			c-1.88,0-3.43-0.63-4.66-1.9c-1.23-1.26-1.84-2.84-1.84-4.72V29.88c0-1.88,0.61-3.45,1.84-4.72c1.23-1.26,2.78-1.9,4.66-1.9
			c1.88,0,3.43,0.63,4.66,1.9c1.23,1.27,1.84,2.84,1.84,4.72V74.66z"/>
		<path class="st0" d="M248.85,24.35c1.74,0,3.18,0.56,4.34,1.68c1.16,1.12,1.73,2.55,1.73,4.28s-0.58,3.16-1.73,4.28
			c-1.16,1.12-2.6,1.68-4.34,1.68h-28.74c-1.74,0-3.18-0.56-4.34-1.68c-1.16-1.12-1.74-2.55-1.74-4.28s0.58-3.16,1.74-4.28
			c1.16-1.12,2.6-1.68,4.34-1.68H248.85z M247.66,1.03c1.59,0,3.15,0.22,4.66,0.65c1.52,0.43,2.78,1.14,3.8,2.11
			c1.01,0.98,1.52,2.26,1.52,3.85c0,1.81-0.53,3.24-1.57,4.28c-1.05,1.05-2.26,1.57-3.63,1.57c-0.65,0-1.63-0.16-2.93-0.49
			c-1.3-0.33-2.57-0.49-3.79-0.49c-1.81,0-3.2,0.4-4.17,1.19c-0.98,0.8-1.65,1.72-2.01,2.77c-0.36,1.05-0.54,1.97-0.54,2.77v55.41
			c0,1.88-0.62,3.45-1.84,4.72c-1.23,1.27-2.78,1.9-4.66,1.9s-3.43-0.63-4.66-1.9c-1.23-1.26-1.84-2.84-1.84-4.72v-55.3
			c0-5.13,1.81-9.47,5.42-13.01C235.01,2.8,240.43,1.03,247.66,1.03z"/>
		<path class="st0" d="M308.28,23.26c1.88,0,3.43,0.63,4.66,1.9c1.23,1.27,1.84,2.84,1.84,4.72v46.09c0,6.65-1.25,11.95-3.74,15.89
			c-2.49,3.94-5.84,6.78-10.03,8.51c-4.19,1.74-8.89,2.6-14.1,2.6c-2.31,0-4.77-0.18-7.37-0.54c-2.6-0.36-4.74-0.9-6.4-1.63
			c-2.17-0.94-3.67-2.12-4.5-3.52c-0.83-1.41-1-2.91-0.49-4.5c0.65-2.1,1.7-3.52,3.14-4.28c1.45-0.76,2.96-0.85,4.55-0.27
			c1.16,0.36,2.67,0.92,4.55,1.68c1.88,0.76,4.05,1.14,6.51,1.14c3.32,0,6.09-0.45,8.3-1.36c2.2-0.91,3.87-2.42,4.99-4.55
			c1.12-2.13,1.68-5.04,1.68-8.73v-7.27l2.28,2.6c-1.23,2.39-2.77,4.36-4.61,5.91c-1.84,1.56-4.03,2.73-6.56,3.52
			c-2.53,0.79-5.42,1.19-8.68,1.19c-3.83,0-7.18-0.89-10.03-2.66c-2.86-1.77-5.08-4.23-6.67-7.37c-1.59-3.14-2.39-6.74-2.39-10.79
			V29.88c0-1.88,0.61-3.45,1.84-4.72c1.23-1.26,2.78-1.9,4.66-1.9c1.88,0,3.43,0.63,4.66,1.9c1.23,1.27,1.84,2.84,1.84,4.72v27.76
			c0,4.7,1.03,8.01,3.09,9.92c2.06,1.92,4.93,2.87,8.62,2.87c2.53,0,4.66-0.49,6.4-1.46c1.74-0.98,3.07-2.42,4.01-4.34
			c0.94-1.92,1.41-4.25,1.41-6.99V29.88c0-1.88,0.61-3.45,1.84-4.72C304.84,23.9,306.4,23.26,308.28,23.26z"/>
	</g>
</g>
</svg>
