<?xml version="1.0" encoding="utf-8"?>
<!-- Generator: Adobe Illustrator 24.1.2, SVG Export Plug-In . SVG Version: 6.00 Build 0)  -->
<svg version="1.1" id="Background" xmlns="http://www.w3.org/2000/svg" xmlns:xlink="http://www.w3.org/1999/xlink" x="0px" y="0px"
	 viewBox="0 0 100 100" style="enable-background:new 0 0 100 100;" xml:space="preserve">
<style type="text/css">
	.st0{fill:#4CAF50;}
	.st1{fill:#FFFFFF;}
</style>
<rect id="Background__x28_filled_x29_" y="0" class="st0" width="100" height="100"/>
<g id="Icon">
	<path class="st1" d="M48.91,74.42c-3.88,0-8.14-0.78-12.76-2.32c-0.6-0.2-1.08-0.65-1.32-1.23c-4.57-10.9-4.36-20.89,0.59-28.89
		C41.75,31.74,55.8,25.19,73.95,24c0.63-0.04,1.2,0.18,1.64,0.59c0.44,0.42,0.69,1,0.69,1.6c0,22.62-4.71,37.48-14.01,44.17
		C58.51,73.06,54.04,74.42,48.91,74.42z M38.49,68.25c8.87,2.79,16.01,2.3,21.22-1.45c7.78-5.6,11.87-18.45,12.17-38.23
		c-15.57,1.46-27.44,7.13-32.75,15.71C35.04,50.9,34.82,58.96,38.49,68.25z M25.89,76.59c-1.08,0-2.03-0.8-2.17-1.91
		c-0.16-1.2,0.69-2.3,1.89-2.46c0.15-0.02,16.07-2.48,29.06-25.21c0.6-1.05,1.94-1.42,2.99-0.82c1.05,0.6,1.42,1.94,0.82,2.99
		c-14.15,24.77-31.56,27.28-32.3,27.38L25.89,76.59z"/>
</g>
</svg>
