<svg xmlns="http://www.w3.org/2000/svg" width="84" height="26" fill="none"><path fill="#6D51CE" fill-rule="evenodd" d="M83.925 13v1.3l-.001.538-.002.414-.002.348-.003.306-.004.277-.004.255-.005.237-.005.222-.007.21-.007.2-.008.19-.008.184-.009.175-.01.17-.01.163-.011.158-.012.154-.012.148-.013.145-.014.142-.014.137-.015.134-.016.131-.017.128-.016.125-.018.123-.019.12-.019.118-.02.115-.02.113-.02.111-.023.11-.023.106-.022.105-.024.104-.025.101-.025.1-.026.099-.027.097-.027.095-.028.093-.029.093-.03.09-.03.09-.03.088-.032.087-.032.085-.033.084-.034.083-.034.082-.035.08-.036.08-.037.079-.037.077-.038.076-.039.075-.04.074-.04.073-.04.072-.043.07-.042.07-.043.07-.044.067-.045.067-.045.066-.046.065-.048.064-.047.064-.049.062-.05.062-.05.06-.05.06-.053.059-.052.058-.054.057-.054.056-.055.056-.056.055-.056.054-.058.053-.059.052-.059.051-.06.051-.061.05-.062.049-.063.048-.064.048-.064.047-.066.046-.067.045-.068.045-.068.043-.07.043-.07.043-.071.041-.073.041-.073.04-.075.04-.075.038-.077.038-.078.037-.079.037-.08.036-.081.035-.082.034-.084.034-.085.033-.086.032-.087.032-.09.03-.09.03-.09.03-.094.029-.094.028-.096.027-.097.027-.099.026-.1.026-.103.024-.103.025-.106.023-.107.023-.11.022-.111.021-.114.02-.116.02-.117.02-.12.019-.123.018-.125.017-.128.017-.132.016-.133.015-.137.015-.14.014-.145.014-.148.012-.152.013-.157.011-.16.01-.168.011-.173.01-.18.008-.185.009-.195.007-.204.007-.213.006-.227.006-.241.005-.26.004-.281.004-.31.003-.354.002-.416.002h-.536L64.457 26h-1.652l-.567-.001-.43-.002-.36-.002-.317-.003-.286-.003-.262-.005-.244-.004-.229-.006-.216-.006-.205-.007-.196-.007-.188-.008-.18-.01-.173-.008-.168-.01-.163-.011-.157-.012-.153-.011-.149-.013-.144-.013-.141-.015-.138-.014-.134-.015-.131-.016-.129-.017-.126-.017-.123-.018-.12-.019-.119-.019-.115-.02-.114-.02-.112-.022-.11-.022-.108-.022-.106-.024-.104-.024-.102-.024-.101-.026-.1-.026-.097-.026-.096-.028-.094-.028-.093-.028-.092-.03-.09-.03-.09-.03-.087-.032-.086-.032-.085-.033-.084-.034-.082-.034-.082-.035-.08-.035-.08-.037-.077-.037-.077-.038-.076-.038-.075-.04-.073-.04-.073-.04-.072-.042-.07-.042-.07-.043-.069-.043-.067-.045-.067-.045-.066-.046-.064-.047-.064-.047-.063-.048-.063-.05-.06-.049-.061-.05-.06-.052-.058-.052-.058-.053-.057-.054-.056-.054-.055-.056-.055-.056-.053-.057-.053-.058-.052-.059-.05-.06-.051-.06-.05-.06-.048-.063-.048-.063-.048-.064-.046-.065-.046-.066-.044-.067-.045-.068-.043-.069-.043-.07-.041-.07-.041-.072-.04-.073-.04-.073-.04-.075-.038-.076-.037-.077-.037-.078-.036-.08-.035-.08-.034-.082-.034-.082-.033-.084-.033-.086-.031-.086-.031-.088-.03-.09-.03-.09-.029-.092-.028-.093-.028-.095-.026-.097-.026-.098-.026-.1-.024-.1-.024-.104-.024-.105-.022-.107-.022-.108-.022-.111-.02-.113-.02-.115-.02-.117-.018-.12-.017-.122-.018-.125-.016-.127-.016-.13-.015-.134-.015-.137-.013-.14-.014-.145-.012-.148-.012-.153-.01-.158-.011-.162-.01-.168-.01-.175-.008-.181-.007-.19-.008-.198-.006-.208-.006-.22-.005-.235-.004-.252-.004-.273-.003-.301-.002-.34-.002-.4-.001-.511v-3.164l.002-.427.002-.356.003-.313.003-.28.005-.259.005-.24.005-.224.006-.212.007-.201.008-.192.008-.184.009-.177.01-.17.01-.164.01-.16.012-.153.012-.15.013-.146.014-.141.014-.138.015-.135.016-.131.016-.129.017-.126.018-.123.018-.12.019-.118.02-.116.02-.113.02-.112.023-.109.022-.107.023-.106.024-.104.024-.101.026-.1.025-.1.027-.096.027-.096.028-.093.029-.093.03-.091.03-.09.03-.088.031-.087.032-.086.033-.084.034-.083.034-.082.035-.08.036-.08.036-.08.037-.076.038-.077.04-.075.039-.074.04-.073.04-.072.042-.071.042-.07.044-.07.043-.067.045-.068.045-.066.047-.065.047-.064.047-.064.049-.062.049-.062.05-.06.05-.06.053-.06.052-.058.053-.057.054-.057.055-.055.056-.055.057-.054.057-.053.059-.053.059-.051.06-.051.06-.05.063-.05.062-.048.064-.047.065-.047.065-.046.067-.046.067-.045.068-.043.07-.044.07-.042.071-.042.072-.04.074-.04.074-.04.076-.039.076-.038.078-.037.079-.037.08-.036.08-.035.083-.035.083-.033.085-.033.086-.033.087-.032.088-.03.09-.03.091-.03.093-.03.094-.028.096-.027.097-.027.098-.026.1-.026.102-.025.104-.024.105-.023.108-.023.109-.022.11-.022.114-.02.115-.02.118-.02.12-.019.122-.018.125-.018.127-.016.13-.017.134-.015.137-.015.14-.014.143-.014.147-.013.152-.012.156-.011.16-.011.166-.01.172-.01.178-.009.185-.008.194-.008.202-.007.212-.006.224-.006.24-.005.255-.004.278-.004.306-.003.344-.003.404-.001L62.6 0h9.178l.605.001.446.001.369.003.322.002.29.004.266.004.247.005.23.005.218.006.207.007.198.007.188.008.182.009.175.009.169.01.163.01.158.012.153.012.15.012.145.013.141.014.139.015.134.015.132.016.129.016.126.017.123.018.121.019.12.019.116.02.114.02.112.021.11.022.108.023.106.023.105.024.102.024.101.025.1.026.098.027.096.027.094.028.094.029.092.029.09.03.09.03.087.032.087.032.085.033.084.033.083.034.081.035.08.036.08.036.078.037.078.038.076.038.074.04.074.04.073.04.072.041.07.042.07.043.069.043.068.045.067.045.066.046.065.046.064.047.063.048.062.05.062.049.06.05.06.052.059.052.057.052.057.054.056.054.056.056.054.056.054.057.053.057.052.06.051.059.05.06.05.061.05.062.047.063.048.064.046.065.046.066.045.066.044.068.044.069.043.07.041.07.042.071.04.073.04.074.039.074.038.076.037.077.037.078.037.079.035.08.034.082.035.082.033.084.032.085.031.086.032.088.03.089.03.09.029.092.028.093.028.095.026.096.027.098.025.1.025.1.024.103.023.105.023.106.022.109.022.11.02.113.02.114.02.117.018.12.018.121.017.125.017.127.016.13.015.133.015.136.013.14.014.144.012.148.012.152.012.156.01.162.01.167.009.174.008.18.008.188.007.197.008.206.005.219.006.232.004.248.004.27.003.296.002.333.002.389.001.486.001.76V13Zm-19.5 7.15h5.2c4.927 0 7.8-3.064 7.8-7.19 0-4.168-2.834-7.11-7.722-7.11h-5.278v14.3Zm-2.6 0h-3.9V5.85h3.9v14.3ZM14.345 13c0 3.944-2.857 7.475-7.155 7.475-4.297 0-7.115-3.49-7.115-7.475 0-3.944 2.858-7.475 7.156-7.475 4.297 0 7.115 3.49 7.115 7.475ZM1.17 13c0 3.572 2.554 6.505 6.06 6.505 3.508 0 6.021-2.891 6.021-6.505 0-3.572-2.554-6.504-6.06-6.504-3.508 0-6.021 2.89-6.021 6.504Zm18.11 7.15h-1.005V5.85h.986l9.712 12.441V5.85h1.005v14.3h-.784L19.28 7.443V20.15Zm24.995 0H34.161V5.85h10.014v.98h-8.968v5.618h8.063v.981h-8.063v5.74h9.068v.981Zm26.129-2.506a5.896 5.896 0 0 0 1.428-.217 4.218 4.218 0 0 0 1.371-.65H73.2c.272-.199.548-.45.822-.77.112-.13.305-.408.414-.624-.253-.268-.638-.488-.999-.682l-.038-.021a7.27 7.27 0 0 0-.752-.364l-.094-.035c-.243-.09-.529-.195-.557-.485-.022-.223.09-.363.226-.53.032-.04.066-.08.1-.125.393-.526.764-1.244.697-2.215-.066-.954-.676-1.694-1.697-1.808a2.75 2.75 0 0 0-.346-.018 2.76 2.76 0 0 0-.345.018c-1.021.114-1.632.854-1.697 1.808-.067.971.303 1.689.697 2.215a4.7 4.7 0 0 0 .1.126c.135.166.248.306.226.53-.029.29-.314.394-.558.484l-.093.035c-.283.11-.585.274-.753.364l-.038.02c-.536.288-1.123.635-1.255 1.108a6.729 6.729 0 0 0-.233 1.836h.915c.255 0 .516.003.784.005.549.006 1.117.011 1.678-.005Z" clip-rule="evenodd"/></svg>